<?xml version="1.0" standalone="no"?>
<!DOCTYPE svg PUBLIC "-//W3C//DTD SVG 20010904//EN"
 "http://www.w3.org/TR/2001/REC-SVG-20010904/DTD/svg10.dtd">
<svg version="1.0" xmlns="http://www.w3.org/2000/svg"
 width="62.000000pt" height="54.000000pt" viewBox="0 0 62.000000 54.000000"
 preserveAspectRatio="xMidYMid meet">

<g transform="translate(0.000000,54.000000) scale(0.100000,-0.100000)"
fill="#000000" stroke="none">
<path d="M220 490 c-30 -11 -77 -22 -104 -26 l-49 -6 6 -86 c3 -55 13 -105 26
-135 12 -27 21 -53 21 -59 0 -16 -52 1 -77 24 l-23 21 0 -21 c0 -27 24 -40 94
-48 31 -4 53 -11 50 -16 -12 -19 104 -118 137 -118 20 0 110 74 125 102 20 39
17 45 -6 15 -32 -40 -109 -89 -130 -82 -35 11 -119 106 -150 168 -22 45 -33
84 -37 134 l-6 71 34 10 c19 6 49 14 68 17 19 4 50 16 70 27 29 17 38 18 58 7
12 -7 26 -9 29 -6 8 8 -40 27 -64 26 -9 0 -42 -9 -72 -19z"/>
<path d="M269 334 c-10 -12 -10 -20 -1 -35 7 -10 12 -32 12 -49 0 -25 4 -30
25 -30 22 0 25 3 19 24 -3 13 -1 32 4 43 23 44 -28 85 -59 47z"/>
</g>
</svg>
